<mxfile host="app.diagrams.net" modified="2023-07-13T13:55:18.191Z" agent="Mozilla/5.0 (Macintosh; Intel Mac OS X 10_15_7) AppleWebKit/537.36 (KHTML, like Gecko) Chrome/114.0.0.0 Safari/537.36" etag="rJFVU9LY3nWKhXnJFH8U" version="21.6.2" type="device">
  <diagram name="Page-1" id="DiG48zBFzZ_ro1D5FXEk">
    <mxGraphModel dx="2417" dy="1027" grid="1" gridSize="10" guides="1" tooltips="1" connect="1" arrows="1" fold="1" page="1" pageScale="1" pageWidth="827" pageHeight="1169" math="0" shadow="0">
      <root>
        <mxCell id="0" />
        <mxCell id="1" parent="0" />
        <mxCell id="wW55fX98OCyg3t6HtlO3-7" value="" style="rounded=0;whiteSpace=wrap;html=1;" vertex="1" parent="1">
          <mxGeometry x="414" y="70" width="280" height="410" as="geometry" />
        </mxCell>
        <mxCell id="wW55fX98OCyg3t6HtlO3-1" value="" style="rounded=0;whiteSpace=wrap;html=1;" vertex="1" parent="1">
          <mxGeometry x="70" y="70" width="280" height="410" as="geometry" />
        </mxCell>
        <mxCell id="wW55fX98OCyg3t6HtlO3-2" value="" style="rounded=0;whiteSpace=wrap;html=1;" vertex="1" parent="1">
          <mxGeometry x="70" y="600" width="280" height="410" as="geometry" />
        </mxCell>
        <mxCell id="wW55fX98OCyg3t6HtlO3-3" value="" style="rounded=0;whiteSpace=wrap;html=1;" vertex="1" parent="1">
          <mxGeometry x="450" y="585" width="280" height="410" as="geometry" />
        </mxCell>
        <mxCell id="wW55fX98OCyg3t6HtlO3-4" value="" style="shape=link;html=1;rounded=0;entryX=1;entryY=0.25;entryDx=0;entryDy=0;" edge="1" parent="1">
          <mxGeometry width="100" relative="1" as="geometry">
            <mxPoint x="70" y="130" as="sourcePoint" />
            <mxPoint x="350" y="132.5" as="targetPoint" />
          </mxGeometry>
        </mxCell>
        <mxCell id="wW55fX98OCyg3t6HtlO3-5" value="Gallery" style="text;html=1;align=center;verticalAlign=middle;resizable=0;points=[];autosize=1;strokeColor=none;fillColor=none;strokeWidth=2;fontSize=18;" vertex="1" parent="1">
          <mxGeometry x="170" y="80" width="80" height="40" as="geometry" />
        </mxCell>
        <mxCell id="wW55fX98OCyg3t6HtlO3-6" value="Artist" style="text;html=1;align=center;verticalAlign=middle;resizable=0;points=[];autosize=1;strokeColor=none;fillColor=none;fontSize=18;" vertex="1" parent="1">
          <mxGeometry x="180" y="600" width="60" height="40" as="geometry" />
        </mxCell>
        <mxCell id="wW55fX98OCyg3t6HtlO3-8" value="" style="shape=link;html=1;rounded=0;entryX=1;entryY=0.25;entryDx=0;entryDy=0;" edge="1" parent="1">
          <mxGeometry width="100" relative="1" as="geometry">
            <mxPoint x="414" y="130" as="sourcePoint" />
            <mxPoint x="694" y="132.5" as="targetPoint" />
          </mxGeometry>
        </mxCell>
        <mxCell id="wW55fX98OCyg3t6HtlO3-9" value="Artwork" style="text;html=1;align=center;verticalAlign=middle;resizable=0;points=[];autosize=1;strokeColor=none;fillColor=none;fontSize=17;" vertex="1" parent="1">
          <mxGeometry x="514" y="85" width="80" height="30" as="geometry" />
        </mxCell>
        <mxCell id="wW55fX98OCyg3t6HtlO3-10" value="" style="shape=link;html=1;rounded=0;entryX=1;entryY=0.25;entryDx=0;entryDy=0;" edge="1" parent="1">
          <mxGeometry width="100" relative="1" as="geometry">
            <mxPoint x="70" y="660" as="sourcePoint" />
            <mxPoint x="350" y="662.5" as="targetPoint" />
          </mxGeometry>
        </mxCell>
        <mxCell id="wW55fX98OCyg3t6HtlO3-11" value="" style="shape=link;html=1;rounded=0;entryX=1;entryY=0.25;entryDx=0;entryDy=0;" edge="1" parent="1">
          <mxGeometry width="100" relative="1" as="geometry">
            <mxPoint x="450" y="660" as="sourcePoint" />
            <mxPoint x="730" y="662.5" as="targetPoint" />
          </mxGeometry>
        </mxCell>
        <mxCell id="wW55fX98OCyg3t6HtlO3-12" value="Customer" style="text;html=1;align=center;verticalAlign=middle;resizable=0;points=[];autosize=1;strokeColor=none;fillColor=none;fontSize=17;" vertex="1" parent="1">
          <mxGeometry x="540" y="605" width="100" height="30" as="geometry" />
        </mxCell>
        <mxCell id="wW55fX98OCyg3t6HtlO3-13" value="" style="endArrow=none;html=1;rounded=0;exitX=0;exitY=0.5;exitDx=0;exitDy=0;entryX=1;entryY=0.5;entryDx=0;entryDy=0;" edge="1" parent="1" source="wW55fX98OCyg3t6HtlO3-1" target="wW55fX98OCyg3t6HtlO3-1">
          <mxGeometry width="50" height="50" relative="1" as="geometry">
            <mxPoint x="220" y="550" as="sourcePoint" />
            <mxPoint x="270" y="500" as="targetPoint" />
          </mxGeometry>
        </mxCell>
        <mxCell id="wW55fX98OCyg3t6HtlO3-14" value="- name: String&lt;br style=&quot;font-size: 17px;&quot;&gt;- till: double&lt;br style=&quot;font-size: 17px;&quot;&gt;-stock: List&amp;lt;Artwork&amp;gt;" style="text;html=1;align=left;verticalAlign=middle;resizable=0;points=[];autosize=1;strokeColor=none;fillColor=none;fontSize=17;" vertex="1" parent="1">
          <mxGeometry x="80" y="140" width="180" height="70" as="geometry" />
        </mxCell>
        <mxCell id="wW55fX98OCyg3t6HtlO3-15" value="" style="endArrow=none;html=1;rounded=0;entryX=1;entryY=0.5;entryDx=0;entryDy=0;exitX=0;exitY=0.5;exitDx=0;exitDy=0;" edge="1" parent="1" source="wW55fX98OCyg3t6HtlO3-7" target="wW55fX98OCyg3t6HtlO3-7">
          <mxGeometry width="50" height="50" relative="1" as="geometry">
            <mxPoint x="220" y="550" as="sourcePoint" />
            <mxPoint x="270" y="500" as="targetPoint" />
          </mxGeometry>
        </mxCell>
        <mxCell id="wW55fX98OCyg3t6HtlO3-16" value="- title: String&lt;br style=&quot;font-size: 17px;&quot;&gt;-artist: String&lt;br style=&quot;font-size: 17px;&quot;&gt;&lt;div style=&quot;&quot;&gt;&lt;span style=&quot;background-color: initial;&quot;&gt;- price: double&lt;/span&gt;&lt;/div&gt;" style="text;html=1;align=left;verticalAlign=middle;resizable=0;points=[];autosize=1;strokeColor=none;fillColor=none;fontSize=17;" vertex="1" parent="1">
          <mxGeometry x="430" y="140" width="130" height="70" as="geometry" />
        </mxCell>
        <mxCell id="wW55fX98OCyg3t6HtlO3-17" value="- name: String" style="text;html=1;align=center;verticalAlign=middle;resizable=0;points=[];autosize=1;strokeColor=none;fillColor=none;fontSize=17;" vertex="1" parent="1">
          <mxGeometry x="70" y="680" width="130" height="30" as="geometry" />
        </mxCell>
        <mxCell id="wW55fX98OCyg3t6HtlO3-19" value="" style="endArrow=none;html=1;rounded=0;entryX=1;entryY=0.5;entryDx=0;entryDy=0;exitX=0;exitY=0.5;exitDx=0;exitDy=0;" edge="1" parent="1" source="wW55fX98OCyg3t6HtlO3-2" target="wW55fX98OCyg3t6HtlO3-2">
          <mxGeometry width="50" height="50" relative="1" as="geometry">
            <mxPoint x="270" y="770" as="sourcePoint" />
            <mxPoint x="320" y="720" as="targetPoint" />
          </mxGeometry>
        </mxCell>
        <mxCell id="wW55fX98OCyg3t6HtlO3-20" value="- name: String&lt;br style=&quot;font-size: 17px;&quot;&gt;- wallet: double" style="text;html=1;align=left;verticalAlign=middle;resizable=0;points=[];autosize=1;strokeColor=none;fillColor=none;fontSize=17;" vertex="1" parent="1">
          <mxGeometry x="454" y="670" width="140" height="50" as="geometry" />
        </mxCell>
        <mxCell id="wW55fX98OCyg3t6HtlO3-21" value="" style="endArrow=none;html=1;rounded=0;exitX=0;exitY=0.5;exitDx=0;exitDy=0;entryX=1;entryY=0.5;entryDx=0;entryDy=0;" edge="1" parent="1" source="wW55fX98OCyg3t6HtlO3-3" target="wW55fX98OCyg3t6HtlO3-3">
          <mxGeometry width="50" height="50" relative="1" as="geometry">
            <mxPoint x="590" y="890" as="sourcePoint" />
            <mxPoint x="640" y="840" as="targetPoint" />
          </mxGeometry>
        </mxCell>
        <mxCell id="wW55fX98OCyg3t6HtlO3-22" value="+ getName()&lt;br&gt;+ getTill()&lt;br&gt;+ getArtworkCount()&lt;br&gt;+ addArtwork()&lt;br&gt;&lt;div style=&quot;&quot;&gt;&lt;span style=&quot;background-color: initial;&quot;&gt;+ removeArtwork()&lt;/span&gt;&lt;/div&gt;" style="text;html=1;align=left;verticalAlign=middle;resizable=0;points=[];autosize=1;strokeColor=none;fillColor=none;fontSize=17;" vertex="1" parent="1">
          <mxGeometry x="70" y="280" width="180" height="120" as="geometry" />
        </mxCell>
        <mxCell id="wW55fX98OCyg3t6HtlO3-23" value="+ getTtitle()&lt;br&gt;+ getArtist()&lt;br&gt;+ getPrice()&lt;br&gt;+ setPrice()" style="text;html=1;align=center;verticalAlign=middle;resizable=0;points=[];autosize=1;strokeColor=none;fillColor=none;fontSize=17;" vertex="1" parent="1">
          <mxGeometry x="414" y="280" width="110" height="100" as="geometry" />
        </mxCell>
        <mxCell id="wW55fX98OCyg3t6HtlO3-24" value="+ getName()" style="text;html=1;align=center;verticalAlign=middle;resizable=0;points=[];autosize=1;strokeColor=none;fillColor=none;fontSize=17;" vertex="1" parent="1">
          <mxGeometry x="75" y="820" width="120" height="30" as="geometry" />
        </mxCell>
        <mxCell id="wW55fX98OCyg3t6HtlO3-25" value="+ getName()&lt;br&gt;+ getWallet()&lt;br&gt;+ setWallet()" style="text;html=1;align=center;verticalAlign=middle;resizable=0;points=[];autosize=1;strokeColor=none;fillColor=none;fontSize=17;" vertex="1" parent="1">
          <mxGeometry x="450" y="800" width="120" height="70" as="geometry" />
        </mxCell>
        <mxCell id="wW55fX98OCyg3t6HtlO3-26" value="Text" style="text;strokeColor=none;align=center;fillColor=none;html=1;verticalAlign=middle;whiteSpace=wrap;rounded=0;" vertex="1" parent="1">
          <mxGeometry x="-350" y="540" width="60" height="30" as="geometry" />
        </mxCell>
      </root>
    </mxGraphModel>
  </diagram>
</mxfile>
